<svg xmlns="http://www.w3.org/2000/svg" viewBox="0 0 167.49 95.06"><defs></defs><g id="Layer_2" data-name="Layer 2"><g id="Layer_1-2" data-name="Layer 1"><path class="cls-1" d="M0,95.06V0A14.38,14.38,0,0,0,4,5.77a15.33,15.33,0,0,0,7.56,3.3c5.3,1,7.82-.22,16.63-1.38C36,6.67,40,6.19,43.46,7.56c1,.4,6.59,2.54,8.93,8.1C54.3,20.21,53,24.52,52,28c-1.55,5.2-3.24,5.76-7.56,13.88-3.4,6.4-5.11,9.6-5.36,13.46a22.62,22.62,0,0,0,4.81,14.84c4.11,5.2,9.33,7,13.19,8.25s6.8,1.52,13,1.78c9.61.4,14.41.6,21.71.28,21.38-1,32.06-1.43,41.64-4.54,1.61-.52,7.58-1.53,19.51-3.57a15,15,0,0,1,6.73.28c1.43.4,5.77,1.63,7.29,5.36s-.64,7.28-1.65,9.06a18.08,18.08,0,0,1-10.45,8Z"/></g></g></svg>