<svg xmlns="http://www.w3.org/2000/svg" viewBox="0 0 270.5 224.61"><defs></defs><g id="Layer_2" data-name="Layer 2"><g id="Layer_1-2" data-name="Layer 1"><path class="cls-1" d="M0,224.61V0H268.39a66.58,66.58,0,0,1,1.37,26.48c-.85,5.58-1.55,10.11-4.67,14.56-6.65,9.51-19.08,11.2-24.18,11.82-13.64,1.66-17.81-3.27-44.25-9.34-24.14-5.55-30.91-3.8-34.07-2.75s-16,5.8-21.44,18.41c-6,13.84.91,27.82,3.58,33.25,2.92,6,9.37,12.86,22.26,26.66,9.84,10.54,12.24,12.26,15.11,17.59s9.11,16.18,5.22,27.2a24.85,24.85,0,0,1-8.79,11.54c-5.78,4.14-14.25,6.27-45.07-.55-21.34-4.72-38.48-10.43-40.95-11.26-10.78-3.63-22.85-8.2-40.67-11.27-14.34-2.47-18.49-1.57-21.43.82-7.7,6.25-6.94,22.44-6.6,29.68.28,6,1.19,8.36.27,13.74a36.64,36.64,0,0,1-7.14,16.22A36.07,36.07,0,0,1,0,224.61Z"/></g></g></svg>